#!OML:ASF F:\VICON\USERDATA\INSTALL\Justin_Nancy\Justin_Nancy.ASF
:FULLY-SPECIFIED
:DEGREES
228
root -8.50098 17.5673 0.470967 -0.196365 -4.67784 1.94099
lowerback 5.37206 1.31059 -1.9061
upperback 0.051777 1.64348 0.521115
thorax -3.02753 0.849522 1.47562
lowerneck -18.4736 -3.84018 -9.52613
upperneck 21.6801 -3.62865 4.33247
head 10.2495 -1.95556 2.60144
rclavicle -1.69712e-014 1.19271e-014
rhumerus -28.2961 -17.0652 -80.6705
rradius 28.4201
rwrist 8.94156
rhand -13.5314 9.19692
rfingers 7.12502
rthumb 12.5809 -20.4043
lclavicle -1.69712e-014 1.19271e-014
lhumerus -34.7963 20.5193 79.6885
lradius 20.8163
lwrist -13.2847
lhand -16.6695 21.7413
lfingers 7.12502
lthumb 9.55419 51.5047
rfemur -4.00337 0.897331 19.3668
rtibia 53.6064
rfoot 7.36351 8.3605
rtoes 12.172
lfemur -18.1597 0.294264 -26.3545
ltibia 20.5956
lfoot -0.187716 -7.87038
ltoes 8.04327
229
root -8.48963 17.5634 0.593792 -0.358918 -4.70036 2.15742
lowerback 5.56781 1.29145 -2.06226
upperback 0.0884886 1.60092 0.415989
thorax -3.09907 0.830111 1.45456
lowerneck -18.6216 -3.83749 -9.39434
upperneck 21.7771 -3.61504 4.19158
head 10.3058 -1.95488 2.53077
rclavicle -1.03865e-014 1.59028e-015
rhumerus -28.6707 -16.7703 -80.8052
rradius 28.5795
rwrist 8.57825
rhand -13.5975 9.23237
rfingers 7.12502
rthumb 12.5172 -20.3727
lclavicle -1.03865e-014 1.59028e-015
lhumerus -34.5484 20.1514 79.7609
lradius 20.7797
lwrist -14.2172
lhand -15.5823 25.4102
lfingers 7.12502
lthumb 10.6031 55.1227
rfemur -5.31023 0.879329 18.8924
rtibia 55.8809
rfoot 6.86992 8.07015
rtoes 10.2378
lfemur -17.5352 0.295796 -26.7019
ltibia 20.6084
lfoot -0.414934 -7.82869
ltoes 7.7826
230
root -8.47522 17.5785 0.727286 -0.572353 -4.8492 2.42661
lowerback 5.73493 1.30318 -2.26983
upperback 0.104412 1.5962 0.323728
thorax -3.17936 0.830752 1.47284
lowerneck -18.5273 -3.80665 -9.41451
upperneck 21.7994 -3.58239 4.21508
head 10.2945 -1.94033 2.54842
rclavicle 5.39203e-015 1.98785e-015
rhumerus -28.8649 -16.4352 -80.8844
rradius 28.467
rwrist 8.34056
rhand -13.6356 9.85693
rfingers 7.12502
rthumb 12.4805 -19.7504
lclavicle 5.39203e-015 1.98785e-015
lhumerus -34.2942 19.9659 79.756
lradius 20.5363
lwrist -15.0913
lhand -10.8492 34.3731
lfingers 7.12502
lthumb 15.1657 63.7974
rfemur -6.8161 1.02882 18.3645
rtibia 57.9703
rfoot 6.31931 7.04412
rtoes 8.94967
lfemur -16.8212 0.266717 -27.0973
ltibia 20.6798
lfoot -1.144 -7.57854
ltoes 8.66987
231
root -8.45939 17.5795 0.858937 -0.81184 -5.07259 2.69586
lowerback 5.95347 1.29052 -2.56456
upperback 0.0769241 1.55349 0.32872
thorax -3.33683 0.816042 1.64207
lowerneck -18.5518 -3.69624 -9.5215
upperneck 22.0513 -3.40202 4.23059
head 10.3792 -1.86877 2.60093
rclavicle 1.67725e-014 -5.96354e-015
rhumerus -28.9603 -15.8519 -80.9006
rradius 28.1627
rwrist 8.27046
rhand -13.3804 10.0386
rfingers 7.12502
rthumb 12.7265 -19.5536
lclavicle 1.67725e-014 -5.96354e-015
lhumerus -34.1809 19.131 80.2315
lradius 20.5517
lwrist -14.493
lhand -14.0327 27.858
lfingers 7.12502
lthumb 12.0975 57.4883
rfemur -8.03964 1.14347 17.8431
rtibia 59.8805
rfoot 5.52174 5.41996
rtoes 8.57624
lfemur -16.0755 0.0793862 -27.4694
ltibia 20.7076
lfoot -1.79992 -7.07014
ltoes 9.77338
232
root -8.44787 17.5832 0.9825 -0.96743 -4.96628 2.74105
lowerback 6.16979 1.15997 -2.71477
upperback -0.0376419 1.36554 0.441537
thorax -3.57427 0.730195 1.85476
lowerneck -18.2914 -3.55105 -9.6684
upperneck 22.254 -3.16821 4.16131
head 10.388 -1.78889 2.63889
rclavicle -2.05245e-014 4.37326e-015
rhumerus -29.2033 -15.2303 -80.8476
rradius 27.9187
rwrist 8.36348
rhand -13.0484 9.27463
rfingers 7.12502
rthumb 13.0465 -20.2974
lclavicle -2.05245e-014 4.37326e-015
lhumerus -34.2678 18.1688 80.7467
lradius 20.8075
lwrist -13.8705
lhand -16.6829 23.9627
lfingers 7.12502
lthumb 9.54135 53.7267
rfemur -9.1985 0.906327 17.6238
rtibia 61.5719
rfoot 4.6432 3.7714
rtoes 7.63747
lfemur -15.4048 -0.276929 -27.6089
ltibia 20.6747
lfoot -2.22058 -6.74948
ltoes 9.4863
233
root -8.43133 17.5887 1.11115 -1.12577 -4.82957 3.05355
lowerback 6.12871 1.03624 -2.99952
upperback 0.0304824 1.18137 0.415208
thorax -3.47626 0.641258 2.00611
lowerneck -17.9897 -3.40299 -9.62231
upperneck 22.1117 -2.94969 3.94863
head 10.2591 -1.71038 2.58669
rclavicle 1.18525e-014 -5.56597e-015
rhumerus -29.2885 -15.0226 -80.8265
rradius 27.9131
rwrist 8.73784
rhand -12.4991 8.8468
rfingers 7.12502
rthumb 13.576 -20.6906
lclavicle 1.18525e-014 -5.56597e-015
lhumerus -34.0085 17.9377 80.9386
lradius 20.8911
lwrist -14.3014
lhand -17.3882 22.2361
lfingers 7.12502
lthumb 8.86073 52.0301
rfemur -10.3398 0.586014 17.0458
rtibia 63.0578
rfoot 3.35608 2.25214
rtoes 6.686
lfemur -14.7908 -0.700944 -28.06
ltibia 20.737
lfoot -2.68101 -6.41321
ltoes 9.15919
234
root -8.41664 17.5895 1.23967 -1.24887 -4.76738 3.31651
lowerback 6.17439 0.957359 -3.23063
upperback 0.0412724 1.05711 0.380915
thorax -3.48731 0.583136 2.11152
lowerneck -17.9381 -3.28026 -9.424
upperneck 22.2349 -2.7656 3.64555
head 10.2728 -1.64777 2.47323
rclavicle -1.01256e-014 -5.96354e-015
rhumerus -29.6262 -14.8022 -80.8004
rradius 28.1964
rwrist 9.01649
rhand -12.2733 9.32145
rfingers 7.12502
rthumb 13.7936 -20.2013
lclavicle -1.01256e-014 -5.96354e-015
lhumerus -33.6951 17.7614 81.0652
lradius 20.8424
lwrist -14.5882
lhand -15.646 25.6359
lfingers 7.12502
lthumb 10.5416 55.3516
rfemur -11.5172 0.320842 16.5121
rtibia 64.3154
rfoot 2.01639 0.87882
rtoes 5.42454
lfemur -14.2066 -0.938951 -28.4723
ltibia 20.8032
lfoot -3.13646 -6.16736
ltoes 8.9416
235
root -8.40628 17.5897 1.36229 -1.33526 -4.6243 3.36753
lowerback 6.30908 0.85154 -3.31916
upperback 0.0254819 0.905672 0.41029
thorax -3.57202 0.511187 2.20424
lowerneck -17.8976 -3.17113 -9.35741
upperneck 22.2942 -2.61939 3.57576
head 10.2737 -1.58478 2.45912
rclavicle -9.67833e-015 -7.55382e-015
rhumerus -29.8688 -14.7183 -80.709
rradius 28.1566
rwrist 9.54987
rhand -12.6026 10.0908
rfingers 7.12502
rthumb 13.4762 -19.4532
lclavicle -9.67833e-015 -7.55382e-015
lhumerus -33.5281 17.5666 81.1541
lradius 21.1711
lwrist -15.266
lhand -11.8468 31.9286
lfingers 7.12502
lthumb 14.2047 61.4229
rfemur -12.7202 0.0847574 16.2737
rtibia 65.3238
rfoot 1.14074 -0.523046
rtoes 5.42336
lfemur -13.7001 -1.18646 -28.6366
ltibia 20.9457
lfoot -3.6361 -5.97196
ltoes 9.07757
236
root -8.39886 17.5893 1.48184 -1.40841 -4.30259 3.41187
lowerback 6.47944 0.721508 -3.47882
upperback -0.0233682 0.716308 0.486025
thorax -3.70958 0.423626 2.38894
lowerneck -17.6937 -3.10902 -9.19988
upperneck 22.2378 -2.52507 3.28498
head 10.2027 -1.56305 2.34276
rclavicle 1.86361e-015 7.55382e-015
rhumerus -30.1338 -14.6897 -80.5223
rradius 28.3446
rwrist 10.3262
rhand -12.6942 9.79347
rfingers 7.12502
rthumb 13.3879 -19.7564
lclavicle 1.86361e-015 7.55382e-015
lhumerus -33.4809 17.1142 81.4119
lradius 21.6792
lwrist -15.2114
lhand -9.09447 36.2801
lfingers 7.12502
lthumb 16.8555 65.5686
rfemur -13.8719 -0.274796 16.0805
rtibia 66.1082
rfoot 0.610412 -2.00994
rtoes 5.73125
lfemur -13.2753 -1.42015 -28.7873
ltibia 21.1605
lfoot -4.19912 -5.99683
ltoes 8.44263
237
root -8.38679 17.584 1.60281 -1.47568 -4.04103 3.30057
lowerback 6.53504 0.604194 -3.3713
upperback -0.0349457 0.568688 0.557505
thorax -3.74237 0.349728 2.41658
lowerneck -17.5196 -3.06261 -9.16436
upperneck 22.239 -2.47212 3.21931
head 10.1654 -1.54486 2.32194
rclavicle -1.43249e-014 6.36111e-015
rhumerus -30.3739 -15.0157 -80.2779
rradius 28.7082
rwrist 11.2495
rhand -12.8853 9.58848
rfingers 7.12502
rthumb 13.2038 -19.9734
lclavicle -1.43249e-014 6.36111e-015
lhumerus -33.468 16.8168 81.5933
lradius 22.2187
lwrist -14.7969
lhand -11.8469 32.2364
lfingers 7.12502
lthumb 14.2045 61.7307
rfemur -14.927 -0.569414 16.0463
rtibia 66.7007
rfoot 0.232817 -3.28715
rtoes 4.94204
lfemur -12.866 -1.71631 -28.7835
ltibia 21.4158
lfoot -4.58296 -5.8989
ltoes 8.25105
238
root -8.37635 17.578 1.7243 -1.627 -3.82136 3.37034
lowerback 6.58405 0.511916 -3.44762
upperback 0.0145696 0.43921 0.568122
thorax -3.71053 0.285657 2.48316
lowerneck -17.448 -2.9934 -9.24637
upperneck 22.3377 -2.39698 3.36446
head 10.1846 -1.50276 2.3996
rclavicle -2.48481e-017 -1.19271e-014
rhumerus -30.4409 -15.4737 -80.0193
rradius 28.564
rwrist 11.4929
rhand -13.447 10.4837
rfingers 7.12502
rthumb 12.6623 -19.1125
lclavicle -2.48481e-017 -1.19271e-014
lhumerus -33.2487 16.6014 81.7102
lradius 22.5097
lwrist -14.6632
lhand -12.9475 30.5616
lfingers 7.12502
lthumb 13.1438 60.1274
rfemur -15.8278 -0.819313 15.8187
rtibia 67.1284
rfoot -0.053553 -4.37771
rtoes 4.68195
lfemur -12.4341 -1.89756 -28.9815
ltibia 21.7355
lfoot -4.93984 -5.83851
ltoes 9.22425
239
root -8.36967 17.5767 1.85102 -1.75912 -3.52838 3.37569
lowerback 6.54235 0.41325 -3.55092
upperback 0.155243 0.306163 0.639851
thorax -3.533 0.216695 2.62893
lowerneck -17.6578 -2.93228 -9.38176
upperneck 22.4583 -2.30362 3.57185
head 10.2647 -1.44759 2.51015
rclavicle 3.72721e-016 1.74931e-014
rhumerus -30.4477 -15.9122 -79.758
rradius 28.409
rwrist 11.6387
rhand -13.6868 11.2723
rfingers 7.12502
rthumb 12.4311 -18.338
lclavicle 3.72721e-016 1.74931e-014
lhumerus -32.7962 16.5749 81.8854
lradius 22.7126
lwrist -14.5369
lhand -8.44261 38.0296
lfingers 7.12502
lthumb 17.4829 67.2634
rfemur -16.6618 -1.07373 15.6845
rtibia 67.3533
rfoot -0.611729 -5.3409
rtoes 5.62378
lfemur -11.9923 -2.10931 -29.0844
ltibia 22.1117
lfoot -5.64979 -5.83137
ltoes 9.84925
240
root -8.36825 17.5713 1.96932 -1.86735 -3.34882 3.28665
lowerback 6.66537 0.344276 -3.62699
upperback 0.203155 0.208817 0.757349
thorax -3.54619 0.17008 2.8031
lowerneck -17.6741 -2.89061 -9.46402
upperneck 22.5102 -2.23595 3.63453
head 10.2835 -1.41707 2.55655
rclavicle -6.43565e-015 -7.95139e-016
rhumerus -30.6835 -16.0656 -79.53
rradius 28.6278
rwrist 11.5383
rhand -13.6888 11.2112
rfingers 7.12502
rthumb 12.4292 -18.3993
lclavicle -6.43565e-015 -7.95139e-016
lhumerus -32.6219 16.3005 82.1365
lradius 23.2138
lwrist -13.9438
lhand -12.6187 30.8949
lfingers 7.12502
lthumb 13.4607 60.44
rfemur -17.6097 -1.07656 15.7362
rtibia 67.3934
rfoot -1.31455 -6.2491
rtoes 5.84051
lfemur -11.6665 -2.1014 -29.0816
ltibia 22.4637
lfoot -6.21912 -5.93681
ltoes 9.53859
241
root -8.36571 17.5604 2.08599 -1.91213 -3.20825 3.37149
lowerback 6.73951 0.289415 -3.8681
upperback 0.150355 0.115151 0.801916
thorax -3.63644 0.130691 2.99471
lowerneck -17.2736 -2.83093 -9.30301
upperneck 22.4142 -2.18014 3.39663
head 10.1648 -1.4069 2.45279
rclavicle -1.45361e-015 -5.56597e-015
rhumerus -31.1162 -16.2305 -79.2943
rradius 28.8489
rwrist 11.2075
rhand -13.8921 11.7909
rfingers 7.12502
rthumb 12.2331 -17.8313
lclavicle -1.45361e-015 -5.56597e-015
lhumerus -32.6595 16.033 82.2442
lradius 23.679
lwrist -13.2463
lhand -12.4105 33.1833
lfingers 7.12502
lthumb 13.6614 62.715
rfemur -18.574 -1.01999 15.5882
rtibia 67.2374
rfoot -2.30022 -7.07189
rtoes 6.19562
lfemur -11.4763 -2.11093 -29.2585
ltibia 22.9657
lfoot -6.73717 -5.94062
ltoes 9.24979
242
root -8.35913 17.5461 2.20752 -1.98433 -2.93483 3.48677
lowerback 6.73961 0.19139 -4.04657
upperback 0.160794 -0.0286191 0.815142
thorax -3.61416 0.0618043 3.1232
lowerneck -17.1415 -2.77986 -9.20634
upperneck 22.4573 -2.10894 3.23364
head 10.1478 -1.38693 2.38947
rclavicle -4.37326e-015 -5.96354e-015
rhumerus -31.5478 -16.0657 -79.189
rradius 29.22
rwrist 10.1527
rhand -13.6945 11.8333
rfingers 7.12502
rthumb 12.4236 -17.7775
lclavicle -4.37326e-015 -5.96354e-015
lhumerus -32.5567 15.5473 82.4938
lradius 24.1085
lwrist -12.0788
lhand -11.827 35.1259
lfingers 7.12502
lthumb 14.2237 64.6189
rfemur -19.3197 -1.0623 15.3606
rtibia 66.8885
rfoot -3.41894 -7.74552
rtoes 6.52559
lfemur -11.2229 -2.17867 -29.4742
ltibia 23.6012
lfoot -7.47498 -6.00536
ltoes 8.73203
